<?xml version="1.0" encoding="utf-8"?>
<!-- Generator: Adobe Adobe Illustrator 29.2.0, SVG Export Plug-In . SVG Version: 6.00 Build 0)  -->
<svg version="1.1" id="Layer_1" xmlns="http://www.w3.org/2000/svg" xmlns:xlink="http://www.w3.org/1999/xlink" x="0px" y="0px"
	 width="1080px" height="1080px" viewBox="0 0 1080 1080" style="enable-background:new 0 0 1080 1080;" xml:space="preserve">
<style type="text/css">
	.st0{stroke:#000000;stroke-width:75;stroke-miterlimit:10;}
	.st1{fill:#CE7A35;}
	.st2{fill:#FFFFFF;}
	.st3{opacity:0.251;}
</style>
<g>
	<g>
		<g>
			<path class="st0" d="M804.18,455.66c0-120.15-136.7-217.54-305.33-217.54s-305.33,97.4-305.33,217.54
				c0,51.79,25.41,99.34,67.82,136.69v245.13c0,51.1,41.42,92.52,92.52,92.52h289.97c51.1,0,92.52-41.42,92.52-92.52V592.35
				C778.77,554.99,804.18,507.44,804.18,455.66z"/>
		</g>
		<g>
			<path class="st0" d="M884.96,365.18c0-120.15-136.7-217.54-305.33-217.54s-305.33,97.4-305.33,217.54
				c0,51.79,25.41,99.34,67.82,136.69V747c0,51.1,41.42,92.52,92.52,92.52h289.97c51.1,0,92.52-41.42,92.52-92.52V501.87
				C859.55,464.52,884.96,416.97,884.96,365.18z"/>
		</g>
	</g>
	<g>
		<g>
			<path class="st1" d="M804.18,455.66c0-120.15-136.7-217.54-305.33-217.54s-305.33,97.4-305.33,217.54
				c0,51.79,25.41,99.34,67.82,136.69v245.13c0,51.1,41.42,92.52,92.52,92.52h289.97c51.1,0,92.52-41.42,92.52-92.52V592.35
				C778.77,554.99,804.18,507.44,804.18,455.66z"/>
		</g>
		<g>
			<path class="st2" d="M884.96,365.18c0-120.15-136.7-217.54-305.33-217.54s-305.33,97.4-305.33,217.54
				c0,51.79,25.41,99.34,67.82,136.69V747c0,51.1,41.42,92.52,92.52,92.52h289.97c51.1,0,92.52-41.42,92.52-92.52V501.87
				C859.55,464.52,884.96,416.97,884.96,365.18z"/>
		</g>
	</g>
	<g class="st3">
		<g>
			<ellipse cx="548.38" cy="658.29" rx="30.43" ry="20.39"/>
			<ellipse cx="707.63" cy="617.52" rx="20.39" ry="30.43"/>
			<circle cx="738.06" cy="699.74" r="21.07"/>
		</g>
		<g>
			<ellipse cx="630.57" cy="358.23" rx="30.43" ry="20.39"/>
			<ellipse cx="471.32" cy="317.46" rx="20.39" ry="30.43"/>
			<circle cx="440.89" cy="399.68" r="21.07"/>
		</g>
	</g>
</g>
</svg>
